<?xml version="1.0" standalone="no"?>
<!DOCTYPE svg PUBLIC "-//W3C//DTD SVG 20010904//EN"
 "http://www.w3.org/TR/2001/REC-SVG-20010904/DTD/svg10.dtd">
<svg version="1.0" xmlns="http://www.w3.org/2000/svg"
 width="225.000000pt" height="225.000000pt" viewBox="0 0 225.000000 225.000000"
 preserveAspectRatio="xMidYMid meet">

<g transform="translate(0.000000,225.000000) scale(0.100000,-0.100000)"
fill="#000000" stroke="none">
<path d="M1884 2019 l-111 -110 -64 21 c-85 29 -180 24 -265 -14 -49 -22 -87
-54 -207 -174 l-147 -147 253 -253 253 -252 146 148 c170 170 198 217 206 336
3 55 -1 85 -18 135 l-21 64 110 111 111 111 -68 68 -67 67 -111 -111z m-203
-281 c76 -42 106 -157 61 -230 -12 -18 -49 -61 -84 -95 l-63 -63 -123 123
-123 123 80 77 c45 43 92 79 108 83 15 3 33 7 38 9 18 6 69 -7 106 -27z"/>
<path d="M858 1173 l-108 -108 -48 48 -47 47 -147 -148 c-118 -117 -153 -159
-174 -206 -38 -84 -43 -180 -14 -265 l21 -64 -110 -111 -111 -111 67 -68 68
-67 111 111 111 110 64 -21 c50 -17 80 -21 139 -18 116 7 159 33 332 206 l148
147 -47 47 -47 48 107 108 107 107 -65 65 -65 65 -108 -108 -107 -107 -28 27
-27 28 107 107 108 108 -65 65 -65 65 -107 -107z m-21 -581 c-82 -83 -117
-104 -175 -105 -119 -1 -202 102 -172 214 9 32 31 63 88 121 l76 79 123 -123
123 -123 -63 -63z"/>
</g>
</svg>
