<?xml version="1.0" standalone="no"?>
<!DOCTYPE svg PUBLIC "-//W3C//DTD SVG 20010904//EN"
 "http://www.w3.org/TR/2001/REC-SVG-20010904/DTD/svg10.dtd">
<svg version="1.0" xmlns="http://www.w3.org/2000/svg"
 width="256.000000pt" height="256.000000pt" viewBox="0 0 256.000000 256.000000"
 preserveAspectRatio="xMidYMid meet">

<g transform="translate(0.000000,256.000000) scale(0.100000,-0.100000)"
fill="#000000" stroke="none">
<path d="M766 2544 c-30 -30 -18 -56 59 -134 l75 -75 -74 -77 c-110 -113 -185
-282 -186 -415 l0 -33 640 0 640 0 0 33 c-1 65 -31 174 -71 256 -31 62 -60
103 -116 159 l-74 76 76 76 c45 45 75 84 75 96 0 25 -29 54 -55 54 -9 0 -57
-39 -106 -87 l-89 -86 -37 16 c-142 62 -344 62 -486 0 l-37 -16 -89 86 c-90
89 -116 101 -145 71z m304 -464 l0 -50 -55 0 -55 0 0 50 0 50 55 0 55 0 0 -50z
m530 0 l0 -50 -55 0 -55 0 0 50 0 50 55 0 55 0 0 -50z"/>
<path d="M330 1700 c-20 -5 -50 -25 -71 -48 -50 -53 -51 -68 -47 -522 3 -374
3 -375 27 -413 31 -51 91 -81 149 -74 50 5 87 29 120 77 22 33 22 34 22 455 0
421 0 422 -23 455 -39 59 -109 86 -177 70z"/>
<path d="M640 1171 c0 -358 4 -548 11 -569 15 -44 52 -64 130 -70 l68 -5 3
-206 c3 -196 4 -208 27 -244 31 -51 91 -81 149 -74 50 5 87 29 120 77 21 32
22 42 22 241 l0 209 110 0 110 0 0 -209 c0 -199 1 -209 23 -241 32 -48 69 -72
119 -77 58 -7 118 23 149 74 23 36 24 48 27 244 l3 206 68 5 c78 6 115 26 130
70 7 21 11 211 11 569 l0 539 -640 0 -640 0 0 -539z"/>
<path d="M2137 1695 c-21 -7 -47 -21 -59 -32 -48 -43 -48 -46 -48 -491 0 -418
0 -419 23 -452 32 -48 69 -72 119 -77 58 -7 118 23 149 74 24 38 24 39 27 413
4 441 2 468 -40 516 -17 19 -38 38 -47 43 -33 17 -87 20 -124 6z"/>
</g>
</svg>
