<?xml version="1.0" standalone="no"?>
<!DOCTYPE svg PUBLIC "-//W3C//DTD SVG 20010904//EN"
 "http://www.w3.org/TR/2001/REC-SVG-20010904/DTD/svg10.dtd">
<svg version="1.0" xmlns="http://www.w3.org/2000/svg"
 width="252.000000pt" height="248.000000pt" viewBox="0 0 252.000000 248.000000"
 preserveAspectRatio="xMidYMid meet">

<g transform="translate(0.000000,248.000000) scale(0.100000,-0.100000)"
fill="#000000" stroke="none">
<path d="M1055 2345 c-451 -85 -808 -442 -900 -897 -32 -160 -17 -392 37 -558
90 -281 321 -540 590 -664 556 -257 1214 -31 1481 509 87 175 117 306 117 506
0 194 -32 334 -115 499 -158 315 -454 538 -802 605 -95 18 -310 18 -408 0z
m331 -105 c232 -29 433 -129 595 -297 131 -136 206 -267 256 -450 24 -87 27
-116 27 -253 0 -137 -3 -166 -27 -253 -106 -385 -397 -657 -792 -738 -77 -16
-293 -16 -370 0 -215 44 -395 142 -541 293 -126 131 -202 264 -251 445 -24 87
-27 116 -27 253 0 137 3 166 27 253 53 192 140 339 281 475 222 213 516 310
822 272z"/>
<path d="M1432 2030 c-102 -52 -178 -159 -189 -268 l-6 -54 44 7 c133 22 249
150 266 294 l6 51 -30 0 c-16 0 -57 -14 -91 -30z"/>
<path d="M912 1675 c-75 -21 -109 -41 -163 -95 -55 -55 -93 -125 -116 -213
-19 -74 -13 -248 12 -339 59 -219 224 -458 336 -488 39 -11 51 -9 119 15 154
54 201 56 309 11 128 -55 214 -26 311 102 51 67 140 232 140 258 0 8 -17 24
-38 37 -51 33 -110 100 -135 156 -33 72 -31 198 5 271 15 31 51 79 80 108 l52
52 -39 40 c-59 60 -132 91 -229 97 -73 5 -92 2 -193 -31 l-113 -37 -91 31
c-110 38 -176 45 -247 25z"/>
</g>
</svg>
