<?xml version="1.0" standalone="no"?>
<!DOCTYPE svg PUBLIC "-//W3C//DTD SVG 20010904//EN"
 "http://www.w3.org/TR/2001/REC-SVG-20010904/DTD/svg10.dtd">
<svg version="1.0" xmlns="http://www.w3.org/2000/svg"
 width="512.000000pt" height="512.000000pt" viewBox="0 0 512.000000 512.000000"
 preserveAspectRatio="xMidYMid meet">

<g transform="translate(0.000000,512.000000) scale(0.100000,-0.100000)"
fill="#000000" stroke="none">
<path d="M2365 5114 c-362 -37 -633 -112 -930 -258 -261 -128 -447 -260 -659
-465 -218 -213 -377 -432 -512 -706 -126 -258 -203 -511 -246 -810 -17 -118
-17 -512 0 -630 71 -496 263 -941 565 -1308 706 -857 1876 -1163 2907 -761
660 258 1196 795 1456 1459 106 273 160 535 171 840 24 692 -233 1359 -717
1859 -220 227 -435 384 -715 521 -252 124 -484 197 -765 240 -101 15 -468 28
-555 19z m550 -343 c627 -106 1159 -449 1511 -977 179 -267 297 -573 351 -909
24 -153 24 -486 0 -645 -99 -641 -447 -1188 -983 -1546 -270 -180 -581 -300
-914 -351 -159 -24 -492 -24 -645 0 -502 81 -947 311 -1286 664 -326 340 -528
750 -606 1228 -24 154 -24 497 1 650 81 499 289 909 635 1256 379 379 861 604
1401 653 108 10 418 -4 535 -23z"/>
<path d="M2978 3322 c-411 -230 -752 -421 -757 -427 -14 -16 -842 -1508 -838
-1512 5 -4 1498 825 1514 840 10 11 843 1505 843 1513 0 2 -3 4 -7 3 -5 0
-344 -188 -755 -417z m-355 -616 c103 -43 128 -177 48 -257 -65 -65 -157 -65
-222 0 -124 123 13 325 174 257z"/>
</g>
</svg>
