<?xml version="1.0" standalone="no"?>
<!DOCTYPE svg PUBLIC "-//W3C//DTD SVG 20010904//EN"
 "http://www.w3.org/TR/2001/REC-SVG-20010904/DTD/svg10.dtd">
<svg version="1.0" xmlns="http://www.w3.org/2000/svg"
 width="200.000000pt" height="200.000000pt" viewBox="0 0 200.000000 200.000000"
 preserveAspectRatio="xMidYMid meet">

<g transform="translate(0.000000,200.000000) scale(0.100000,-0.100000)"
fill="#000000" stroke="none">
<path d="M903 1876 c-99 -32 -175 -105 -239 -232 -48 -95 -61 -153 -50 -229 8
-49 37 -88 59 -79 20 7 101 -50 115 -81 42 -91 125 -150 212 -149 64 0 104 18
156 72 96 99 142 297 97 428 -24 70 -103 147 -173 168 -67 20 -93 20 -159 0
-69 -20 -141 -86 -171 -157 -20 -46 -22 -63 -17 -155 4 -79 2 -100 -7 -93 -8
7 -12 46 -11 123 0 99 4 119 25 162 49 96 167 176 260 176 98 0 217 -84 266
-187 23 -50 25 -64 20 -127 -7 -79 4 -138 29 -166 38 -42 75 18 75 124 0 52
-7 74 -50 162 -56 114 -126 190 -207 226 -60 26 -172 33 -230 14z m17 -292
c73 -18 114 -17 179 5 l53 19 24 -52 c13 -28 24 -61 24 -73 0 -25 10 -29 28
-11 15 15 15 7 1 -66 -14 -79 -41 -137 -85 -186 -49 -54 -82 -70 -144 -70 -63
0 -95 16 -146 72 l-39 43 39 3 c22 2 50 -2 63 -9 31 -17 57 -2 61 34 5 37 -24
50 -66 30 -22 -11 -45 -13 -76 -9 -47 7 -51 13 -71 100 -5 25 -3 28 13 24 17
-5 19 1 19 61 -1 80 15 116 46 106 12 -4 47 -13 77 -21z"/>
<path d="M693 1109 c-71 -27 -155 -106 -188 -175 -25 -53 -26 -54 -69 -54 -33
0 -49 -6 -70 -26 -14 -15 -26 -34 -26 -43 0 -9 23 -151 51 -316 42 -242 55
-304 72 -322 l20 -23 524 0 524 0 22 22 c19 20 30 67 75 330 40 234 51 312 42
327 -17 32 -52 51 -95 51 -38 0 -41 2 -59 48 -29 69 -117 154 -189 180 -76 29
-93 28 -111 -6 -8 -15 -34 -38 -58 -52 -38 -22 -54 -25 -148 -25 -94 0 -110 3
-150 25 -25 14 -51 38 -58 53 -16 33 -37 34 -109 6z m937 -249 c44 -24 44 -35
-12 -358 -39 -229 -57 -311 -70 -324 -17 -17 -54 -18 -538 -18 -507 0 -521 1
-540 20 -11 11 -20 23 -20 28 0 4 -23 137 -50 295 -28 159 -50 297 -50 307 0
10 12 28 26 39 26 21 35 21 631 21 393 0 611 -4 623 -10z"/>
<path d="M981 541 c-7 -13 -6 -23 3 -36 17 -24 50 -15 54 14 6 39 -39 56 -57
22z"/>
<path d="M440 110 c0 -20 5 -20 567 -18 532 3 568 4 571 20 3 17 -29 18 -567
18 -565 0 -571 0 -571 -20z"/>
</g>
</svg>
