<?xml version="1.0" standalone="no"?>
<!DOCTYPE svg PUBLIC "-//W3C//DTD SVG 20010904//EN"
 "http://www.w3.org/TR/2001/REC-SVG-20010904/DTD/svg10.dtd">
<svg version="1.0" xmlns="http://www.w3.org/2000/svg"
 width="981.000000pt" height="798.000000pt" viewBox="0 0 981.000000 798.000000"
 preserveAspectRatio="xMidYMid meet">

<g transform="translate(0.000000,798.000000) scale(0.100000,-0.100000)"
fill="#000000" stroke="none">
<path d="M3540 7954 c-168 -44 -333 -177 -403 -324 -60 -126 -67 -186 -67
-554 l0 -325 -1272 -3 c-1181 -3 -1277 -5 -1332 -21 -164 -49 -319 -175 -388
-317 -73 -149 -68 106 -68 -3032 0 -1992 3 -2843 11 -2880 15 -76 90 -225 144
-285 62 -70 175 -144 266 -174 l74 -24 4410 0 4410 0 65 23 c202 73 348 233
400 438 20 76 20 123 20 2898 0 2431 -2 2831 -15 2890 -45 214 -220 397 -441
463 -55 16 -151 18 -1331 21 l-1273 3 0 325 c0 255 -3 341 -16 402 -46 228
-229 419 -459 477 -87 22 -2650 21 -2735 -1z m2590 -899 l0 -305 -1220 0
-1220 0 0 305 0 305 1220 0 1220 0 0 -305z m3070 -2450 l0 -305 -612 -2 -613
-3 -5 -500 c-5 -485 -6 -501 -26 -546 -28 -60 -86 -118 -149 -149 l-50 -25
-385 0 -385 0 -50 27 c-63 33 -118 88 -147 147 -23 45 -23 52 -28 546 l-5 500
-1835 0 -1835 0 -5 -500 c-5 -485 -6 -501 -26 -546 -28 -60 -86 -118 -149
-149 l-50 -25 -385 0 -385 0 -50 27 c-63 33 -118 88 -147 147 -23 45 -23 52
-28 546 l-5 500 -612 3 -613 2 0 305 0 305 4290 0 4290 0 0 -305z"/>
</g>
</svg>
