<?xml version="1.0" standalone="no"?>
<!DOCTYPE svg PUBLIC "-//W3C//DTD SVG 20010904//EN"
 "http://www.w3.org/TR/2001/REC-SVG-20010904/DTD/svg10.dtd">
<svg version="1.0" xmlns="http://www.w3.org/2000/svg"
 width="820.000000pt" height="807.000000pt" viewBox="0 0 820.000000 807.000000"
 preserveAspectRatio="xMidYMid meet">

<g transform="translate(0.000000,807.000000) scale(0.100000,-0.100000)"
fill="#000000" stroke="none">
<path d="M3999 7641 c-393 -55 -705 -392 -784 -848 -75 -428 113 -995 435
-1313 157 -156 276 -213 445 -213 112 0 183 20 292 84 81 47 246 216 317 323
116 176 208 396 258 617 20 91 23 129 22 304 0 185 -2 207 -27 300 -38 137
-129 319 -211 422 -121 149 -303 270 -466 307 -83 19 -209 27 -281 17z"/>
<path d="M3292 5455 c-719 -203 -1033 -430 -1177 -854 -54 -159 -84 -408 -85
-707 l0 -102 56 -78 c186 -260 445 -502 714 -669 234 -144 546 -268 802 -319
189 -37 306 -49 508 -48 489 0 936 134 1343 402 243 159 452 353 619 575 l60
79 -5 246 c-5 270 -19 375 -68 524 -144 435 -490 706 -1208 945 -84 29 -155
50 -157 48 -2 -2 -99 -255 -215 -563 -115 -307 -214 -563 -220 -568 -5 -6 -9
93 -9 266 l0 276 34 93 c19 52 37 102 41 112 7 16 -7 17 -214 17 -122 0 -221
-2 -221 -5 0 -2 18 -55 40 -116 l40 -112 0 -258 c0 -142 -4 -260 -9 -263 -5
-3 -69 135 -142 307 -312 734 -347 812 -360 814 -8 1 -83 -18 -167 -42z"/>
<path d="M1457 3200 l-347 -278 -84 43 c-46 24 -117 51 -161 60 -294 66 -605
-113 -706 -405 -30 -89 -38 -251 -15 -340 55 -221 231 -400 447 -456 77 -20
214 -22 289 -5 85 20 209 84 271 140 163 146 243 381 196 579 l-14 63 51 43
c28 24 123 100 211 169 l159 127 146 -143 c80 -79 183 -173 230 -211 215 -172
546 -365 795 -464 272 -108 603 -189 845 -207 47 -3 95 -8 108 -11 l22 -4 0
-256 0 -255 -45 -19 c-257 -110 -410 -395 -361 -670 63 -354 413 -579 760
-490 314 80 515 396 452 711 -26 128 -75 219 -171 314 -63 64 -97 89 -162 120
l-83 40 0 252 0 253 23 4 c12 3 58 8 102 11 368 29 851 181 1198 376 268 150
578 391 752 582 l62 69 200 -160 c110 -87 210 -166 222 -174 21 -15 22 -19 10
-77 -51 -261 93 -545 336 -661 102 -48 169 -64 275 -63 168 1 307 59 431 183
130 129 186 275 177 467 -8 161 -66 292 -178 402 -186 183 -458 230 -689 121
-35 -17 -76 -39 -92 -51 l-29 -20 -355 283 c-196 156 -362 283 -369 283 -8 0
-45 -40 -83 -90 -388 -501 -902 -844 -1508 -1005 -261 -70 -587 -101 -849 -82
-807 59 -1496 422 -1998 1053 -57 71 -107 129 -113 128 -5 0 -166 -126 -358
-279z"/>
</g>
</svg>
