<?xml version="1.0" standalone="no"?>
<!DOCTYPE svg PUBLIC "-//W3C//DTD SVG 20010904//EN"
 "http://www.w3.org/TR/2001/REC-SVG-20010904/DTD/svg10.dtd">
<svg version="1.0" xmlns="http://www.w3.org/2000/svg"
 width="512.000000pt" height="512.000000pt" viewBox="0 0 512.000000 512.000000"
 preserveAspectRatio="xMidYMid meet">

<g transform="translate(0.000000,512.000000) scale(0.100000,-0.100000)"
fill="#000000" stroke="none">
<path d="M2354 5110 c-620 -52 -1197 -325 -1630 -771 -312 -322 -539 -729
-643 -1149 -107 -435 -106 -859 4 -1277 48 -184 92 -299 185 -488 127 -259
266 -454 473 -664 405 -411 908 -660 1497 -743 136 -19 534 -16 673 5 441 67
830 227 1172 482 565 421 917 1022 1017 1735 19 143 16 526 -6 670 -69 455
-229 838 -497 1197 -83 111 -338 372 -445 455 -197 155 -488 319 -718 403
-138 51 -340 101 -502 124 -160 24 -433 33 -580 21z m1705 -1561 c17 -6 31
-14 30 -17 0 -4 -344 -301 -764 -660 l-764 -652 -761 650 c-418 358 -760 655
-760 659 0 4 10 13 23 19 32 15 2951 16 2996 1z m-2335 -819 c395 -337 734
-623 754 -636 41 -28 107 -32 151 -9 16 8 365 302 777 655 l749 641 3 -852 2
-851 -21 -38 c-12 -21 -38 -47 -59 -59 l-38 -21 -1484 0 -1485 0 -34 23 c-18
12 -44 38 -56 56 l-23 34 0 855 0 855 23 -20 c12 -11 345 -296 741 -633z"/>
</g>
</svg>
