<?xml version="1.0" standalone="no"?>
<!DOCTYPE svg PUBLIC "-//W3C//DTD SVG 20010904//EN"
 "http://www.w3.org/TR/2001/REC-SVG-20010904/DTD/svg10.dtd">
<svg version="1.0" xmlns="http://www.w3.org/2000/svg"
 width="1024.000000pt" height="1024.000000pt" viewBox="0 0 1024.000000 1024.000000"
 preserveAspectRatio="xMidYMid meet">

<g transform="translate(0.000000,1024.000000) scale(0.100000,-0.100000)"
fill="#000000" stroke="none">
<path d="M4965 10230 c-192 -31 -350 -119 -451 -253 -130 -173 -186 -376 -186
-680 0 -153 -1 -157 -21 -162 -12 -3 -71 -16 -132 -29 -386 -85 -785 -278
-1101 -532 -543 -434 -904 -1061 -1004 -1740 -19 -135 -20 -182 -20 -1694 l0
-1555 -515 -515 -515 -515 0 -252 0 -253 4100 0 4100 0 0 253 0 252 -515 515
-515 515 0 1555 c0 1512 -1 1559 -20 1694 -70 473 -271 933 -576 1316 -88 110
-315 337 -424 424 -146 116 -308 218 -496 312 -235 118 -438 187 -741 249 -21
5 -21 9 -21 163 -1 509 -187 819 -551 913 -88 23 -302 33 -396 19z"/>
<path d="M3586 1532 c-8 -13 12 -223 29 -302 78 -373 282 -693 585 -921 513
-386 1214 -410 1755 -61 338 217 590 585 669 977 17 83 37 294 29 308 -6 9
-3060 9 -3067 -1z"/>
</g>
</svg>
