<?xml version="1.0" standalone="no"?>
<!DOCTYPE svg PUBLIC "-//W3C//DTD SVG 20010904//EN"
 "http://www.w3.org/TR/2001/REC-SVG-20010904/DTD/svg10.dtd">
<svg version="1.0" xmlns="http://www.w3.org/2000/svg"
 width="512.000000pt" height="512.000000pt" viewBox="0 0 512.000000 512.000000"
 preserveAspectRatio="xMidYMid meet">

<g transform="translate(0.000000,512.000000) scale(0.100000,-0.100000)"
fill="#000000" stroke="none">
<path d="M4245 4899 c-117 -15 -74 25 -1333 -1233 l-1174 -1173 -174 -549
c-97 -308 -174 -566 -174 -587 0 -84 56 -147 139 -155 48 -4 75 4 966 295
l170 55 1177 1176 c794 794 1185 1191 1202 1221 13 26 30 75 37 111 15 83 -5
171 -56 245 -56 83 -522 536 -578 564 -57 27 -133 39 -202 30z m295 -554 l234
-234 -142 -143 -142 -143 -240 240 -240 240 137 137 c76 76 142 138 148 138 6
0 116 -106 245 -235z m-417 -413 l237 -237 -915 -915 -915 -915 -240 240 -240
240 912 912 c502 502 915 913 918 913 3 0 112 -107 243 -238z m-1945 -1945
l193 -193 -282 -92 c-155 -51 -284 -90 -287 -87 -6 5 170 565 178 565 3 0 92
-87 198 -193z"/>
<path d="M3835 3966 c-16 -8 -357 -342 -757 -743 l-728 -729 0 -41 c0 -53 42
-93 98 -93 35 0 67 31 769 732 497 497 736 743 743 764 25 75 -52 143 -125
110z"/>
<path d="M888 4476 c-101 -36 -172 -100 -217 -196 l-26 -55 0 -1660 0 -1660
33 -67 c36 -74 95 -132 170 -170 l47 -23 1657 -3 c1648 -2 1657 -2 1711 18
113 43 192 130 222 246 13 54 15 168 13 910 l-3 849 -22 35 c-44 71 -130 96
-202 58 -25 -13 -54 -36 -65 -51 -21 -28 -21 -38 -24 -877 -2 -694 -5 -850
-16 -859 -9 -8 -449 -10 -1607 -9 l-1594 3 0 1600 0 1600 1030 5 c932 5 1033
7 1060 21 58 32 87 80 87 145 0 53 -26 101 -72 131 l-33 23 -1056 0 c-843 -1
-1063 -4 -1093 -14z"/>
</g>
</svg>
